# xmcd
#
# Track frame offsets:
#	200
#	21792
#	44165
#	66932
#	88567
#	104642
#	124810
#	146712
#	167745
#	190037
#	212207
#	230517
#
# Disc length: 3354 seconds
# Revision: 3
# Processed by: cddbd v1.5.2PL0 Copyright (c) Steve Scherf et al.
# Submitted via: dBpowerAMP V12.0
#
DISCID=b30d180c
DTITLE=EmilePandolfi,NYC,thenGreenville,SC - Country Impressions
DYEAR=1994
DGENRE=Piano
TTITLE0=Lady
TTITLE1=Tennessee Waltz
TTITLE2=I Will Always Love You
TTITLE3=The Sweetest Thing (I've Ever Known)
TTITLE4=I Still Believe In You
TTITLE5=You Needed Me
TTITLE6=The Song Remembers When
TTITLE7=Could I Have This Dance
TTITLE8=Is It Over Yet?
TTITLE9=Snowbird
TTITLE10=The Dance
TTITLE11=She Believes In Me
EXTD=
EXTT0=
EXTT1=
EXTT2=
EXTT3=
EXTT4=
EXTT5=
EXTT6=
EXTT7=
EXTT8=
EXTT9=
EXTT10=
EXTT11=
PLAYORDER=
